%TF.GenerationSoftware,KiCad,Pcbnew,8.0.5*%
%TF.CreationDate,2024-11-09T14:32:33-07:00*%
%TF.ProjectId,Senior_Project_Schematic_Design,53656e69-6f72-45f5-9072-6f6a6563745f,rev?*%
%TF.SameCoordinates,Original*%
%TF.FileFunction,Drillmap*%
%TF.FilePolarity,Positive*%
%FSLAX45Y45*%
G04 Gerber Fmt 4.5, Leading zero omitted, Abs format (unit mm)*
G04 Created by KiCad (PCBNEW 8.0.5) date 2024-11-09 14:32:33*
%MOMM*%
%LPD*%
G01*
G04 APERTURE LIST*
%ADD10C,0.050000*%
%ADD11C,0.200000*%
G04 APERTURE END LIST*
D10*
X4365000Y-8280000D02*
X4365000Y-9550000D01*
X4619000Y-9804000D02*
X6651000Y-9804000D01*
X6651000Y-8026000D02*
X4619000Y-8026000D01*
X6905000Y-9550000D02*
X6905000Y-8280000D01*
X4365000Y-8280000D02*
G75*
G02*
X4619000Y-8026000I254000J0D01*
G01*
X4619000Y-9804000D02*
G75*
G02*
X4365000Y-9550000I0J254000D01*
G01*
X6651000Y-8026000D02*
G75*
G02*
X6905000Y-8280000I0J-254000D01*
G01*
X6905000Y-9550000D02*
G75*
G02*
X6651000Y-9804000I-254000J0D01*
G01*
D11*
X4623277Y-10117984D02*
X4623277Y-9917984D01*
X4623277Y-9917984D02*
X4670896Y-9917984D01*
X4670896Y-9917984D02*
X4699467Y-9927508D01*
X4699467Y-9927508D02*
X4718515Y-9946555D01*
X4718515Y-9946555D02*
X4728039Y-9965603D01*
X4728039Y-9965603D02*
X4737563Y-10003698D01*
X4737563Y-10003698D02*
X4737563Y-10032270D01*
X4737563Y-10032270D02*
X4728039Y-10070365D01*
X4728039Y-10070365D02*
X4718515Y-10089412D01*
X4718515Y-10089412D02*
X4699467Y-10108460D01*
X4699467Y-10108460D02*
X4670896Y-10117984D01*
X4670896Y-10117984D02*
X4623277Y-10117984D01*
X4823277Y-10117984D02*
X4823277Y-9984650D01*
X4823277Y-10022746D02*
X4832801Y-10003698D01*
X4832801Y-10003698D02*
X4842324Y-9994174D01*
X4842324Y-9994174D02*
X4861372Y-9984650D01*
X4861372Y-9984650D02*
X4880420Y-9984650D01*
X4947086Y-10117984D02*
X4947086Y-9984650D01*
X4947086Y-9917984D02*
X4937563Y-9927508D01*
X4937563Y-9927508D02*
X4947086Y-9937031D01*
X4947086Y-9937031D02*
X4956610Y-9927508D01*
X4956610Y-9927508D02*
X4947086Y-9917984D01*
X4947086Y-9917984D02*
X4947086Y-9937031D01*
X5070896Y-10117984D02*
X5051848Y-10108460D01*
X5051848Y-10108460D02*
X5042324Y-10089412D01*
X5042324Y-10089412D02*
X5042324Y-9917984D01*
X5175658Y-10117984D02*
X5156610Y-10108460D01*
X5156610Y-10108460D02*
X5147086Y-10089412D01*
X5147086Y-10089412D02*
X5147086Y-9917984D01*
X5404229Y-10117984D02*
X5404229Y-9917984D01*
X5404229Y-9917984D02*
X5470896Y-10060841D01*
X5470896Y-10060841D02*
X5537563Y-9917984D01*
X5537563Y-9917984D02*
X5537563Y-10117984D01*
X5718515Y-10117984D02*
X5718515Y-10013222D01*
X5718515Y-10013222D02*
X5708991Y-9994174D01*
X5708991Y-9994174D02*
X5689943Y-9984650D01*
X5689943Y-9984650D02*
X5651848Y-9984650D01*
X5651848Y-9984650D02*
X5632801Y-9994174D01*
X5718515Y-10108460D02*
X5699467Y-10117984D01*
X5699467Y-10117984D02*
X5651848Y-10117984D01*
X5651848Y-10117984D02*
X5632801Y-10108460D01*
X5632801Y-10108460D02*
X5623277Y-10089412D01*
X5623277Y-10089412D02*
X5623277Y-10070365D01*
X5623277Y-10070365D02*
X5632801Y-10051317D01*
X5632801Y-10051317D02*
X5651848Y-10041793D01*
X5651848Y-10041793D02*
X5699467Y-10041793D01*
X5699467Y-10041793D02*
X5718515Y-10032270D01*
X5813753Y-9984650D02*
X5813753Y-10184650D01*
X5813753Y-9994174D02*
X5832801Y-9984650D01*
X5832801Y-9984650D02*
X5870896Y-9984650D01*
X5870896Y-9984650D02*
X5889943Y-9994174D01*
X5889943Y-9994174D02*
X5899467Y-10003698D01*
X5899467Y-10003698D02*
X5908991Y-10022746D01*
X5908991Y-10022746D02*
X5908991Y-10079889D01*
X5908991Y-10079889D02*
X5899467Y-10098936D01*
X5899467Y-10098936D02*
X5889943Y-10108460D01*
X5889943Y-10108460D02*
X5870896Y-10117984D01*
X5870896Y-10117984D02*
X5832801Y-10117984D01*
X5832801Y-10117984D02*
X5813753Y-10108460D01*
X5994705Y-10098936D02*
X6004229Y-10108460D01*
X6004229Y-10108460D02*
X5994705Y-10117984D01*
X5994705Y-10117984D02*
X5985182Y-10108460D01*
X5985182Y-10108460D02*
X5994705Y-10098936D01*
X5994705Y-10098936D02*
X5994705Y-10117984D01*
X5994705Y-9994174D02*
X6004229Y-10003698D01*
X6004229Y-10003698D02*
X5994705Y-10013222D01*
X5994705Y-10013222D02*
X5985182Y-10003698D01*
X5985182Y-10003698D02*
X5994705Y-9994174D01*
X5994705Y-9994174D02*
X5994705Y-10013222D01*
M02*
