M48
; DRILL file {KiCad 8.0.5} date 2025-01-29T09:14:29-0700
; FORMAT={-:-/ absolute / inch / decimal}
; #@! TF.CreationDate,2025-01-29T09:14:29-07:00
; #@! TF.GenerationSoftware,Kicad,Pcbnew,8.0.5
; #@! TF.FileFunction,Plated,1,2,PTH
FMAT,2
INCH
; #@! TA.AperFunction,Plated,PTH,ViaDrill
T1C0.0118
; #@! TA.AperFunction,Plated,PTH,ComponentDrill
T2C0.0315
; #@! TA.AperFunction,Plated,PTH,ComponentDrill
T3C0.0350
; #@! TA.AperFunction,Plated,PTH,ComponentDrill
T4C0.0354
; #@! TA.AperFunction,Plated,PTH,ComponentDrill
T5C0.0394
; #@! TA.AperFunction,Plated,PTH,ComponentDrill
T6C0.0398
; #@! TA.AperFunction,Plated,PTH,ComponentDrill
T7C0.0437
; #@! TA.AperFunction,Plated,PTH,ComponentDrill
T8C0.0512
; #@! TA.AperFunction,Plated,PTH,ComponentDrill
T9C0.0945
%
G90
G05
T1
X9.5909Y-6.1713
X9.8622Y-5.378
X10.1181Y-4.2028
X10.3445Y-4.2028
X11.2677Y-4.5276
X11.437Y-3.8661
X11.4469Y-4.8622
X11.4724Y-6.0394
X11.4921Y-3.8937
X11.5669Y-4.3189
X11.5756Y-4.3795
X11.6267Y-4.5099
X11.6587Y-4.5108
X11.733Y-4.5088
X11.7598Y-4.7598
X11.7953Y-4.5079
X11.8622Y-4.3819
X11.8642Y-4.3228
X11.8898Y-4.2224
X12.7756Y-3.4941
X12.7756Y-3.7425
X13.6732Y-2.7185
X13.7559Y-3.4291
T2
X9.8969Y-5.9205
X9.8969Y-6.2205
X9.9969Y-5.9205
X9.9969Y-6.2205
X10.0969Y-5.9205
X10.0969Y-6.2205
X10.1969Y-5.9205
X10.1969Y-6.2205
T3
X13.2279Y-4.788
X13.2748Y-5.3555
X13.2748Y-5.4555
X13.2748Y-5.5555
X13.2748Y-5.6555
X13.2748Y-5.7555
X13.2748Y-5.8555
X13.2748Y-5.9555
X13.2748Y-6.0555
X13.2748Y-6.1555
X13.2748Y-6.2555
X13.2748Y-6.3555
X13.2748Y-6.4555
X13.3279Y-4.788
X13.9748Y-5.3555
X13.9748Y-5.4555
X13.9748Y-5.5555
X13.9748Y-5.6555
X13.9748Y-5.7555
X13.9748Y-5.8555
X13.9748Y-5.9555
X13.9748Y-6.0555
X13.9748Y-6.1555
X13.9748Y-6.2555
X13.9748Y-6.3555
X13.9748Y-6.4555
T4
X9.5654Y-5.6693
X9.6654Y-5.6693
X9.8606Y-5.6693
X9.9606Y-5.6693
X10.1559Y-5.6693
X10.2559Y-5.6693
X10.4512Y-5.6693
X10.5512Y-5.6693
T5
X10.4906Y-3.615
X10.4906Y-3.715
X10.4906Y-3.815
X10.4906Y-3.915
X10.4906Y-4.015
X10.4906Y-4.115
X10.4906Y-4.215
X10.4906Y-4.315
X10.4906Y-4.415
X10.4906Y-4.515
X10.4906Y-4.615
X10.4906Y-4.715
X10.4906Y-4.815
X10.4906Y-4.915
X10.4906Y-5.015
X10.4906Y-5.115
X10.4906Y-5.215
X10.4906Y-5.315
X10.563Y-6.4134
X10.5906Y-3.615
X10.5906Y-3.715
X10.5906Y-3.815
X10.5906Y-3.915
X10.5906Y-4.015
X10.5906Y-4.115
X10.5906Y-4.215
X10.5906Y-4.315
X10.5906Y-4.415
X10.5906Y-4.515
X10.5906Y-4.615
X10.5906Y-4.715
X10.5906Y-4.815
X10.5906Y-4.915
X10.5906Y-5.015
X10.5906Y-5.115
X10.5906Y-5.215
X10.5906Y-5.315
X10.663Y-6.4134
X10.763Y-6.4134
X10.863Y-6.4134
X10.963Y-6.4134
X11.063Y-6.4134
X11.163Y-6.4134
X11.263Y-6.4134
X11.4867Y-6.3905
X11.5867Y-5.8905
X11.5867Y-6.3905
X11.6867Y-5.8905
X11.6867Y-6.3905
X11.7867Y-5.8905
X11.7867Y-6.3905
X11.8867Y-5.8905
X11.8867Y-6.3905
X11.9867Y-6.3905
X12.8921Y-3.5425
X12.8921Y-3.6425
X12.8921Y-3.7425
X12.8921Y-3.8425
X12.8921Y-3.9425
X12.8921Y-4.0425
X12.8921Y-4.1425
X12.8921Y-4.2425
X12.8921Y-4.3425
X12.8921Y-4.4425
X12.8921Y-4.5425
X12.8921Y-4.6425
X12.8921Y-4.7425
X12.8921Y-4.8425
X12.8921Y-4.9425
X12.8921Y-5.0425
X12.8921Y-5.1425
X12.8921Y-5.2425
X12.9921Y-3.5425
X12.9921Y-3.6425
X12.9921Y-3.7425
X12.9921Y-3.8425
X12.9921Y-3.9425
X12.9921Y-4.0425
X12.9921Y-4.1425
X12.9921Y-4.2425
X12.9921Y-4.3425
X12.9921Y-4.4425
X12.9921Y-4.5425
X12.9921Y-4.6425
X12.9921Y-4.7425
X12.9921Y-4.8425
X12.9921Y-4.9425
X12.9921Y-5.0425
X12.9921Y-5.1425
X12.9921Y-5.2425
T6
X9.485Y-2.7559
X9.585Y-2.7559
X9.685Y-2.7559
T7
X10.4331Y-2.1366
X10.4331Y-2.2366
X10.4331Y-2.3366
X12.874Y-1.8866
X12.874Y-1.9866
X12.874Y-2.0866
X12.874Y-2.1866
X12.874Y-2.2866
X12.874Y-2.3866
X12.874Y-2.4866
X12.874Y-2.5866
T8
X9.8467Y-1.6929
X10.0467Y-1.6929
X13.3827Y-1.7323
X13.5827Y-1.7323
X14.1732Y-1.9654
X14.1732Y-2.1654
T9
X10.3858Y-1.7169
X10.3858Y-2.7563
X12.9213Y-1.7169
X12.9213Y-2.7563
M30
