%TF.GenerationSoftware,KiCad,Pcbnew,8.0.5*%
%TF.CreationDate,2025-01-29T09:14:24-07:00*%
%TF.ProjectId,Senior_Project_Schematic_Design,53656e69-6f72-45f5-9072-6f6a6563745f,rev?*%
%TF.SameCoordinates,Original*%
%TF.FileFunction,Paste,Top*%
%TF.FilePolarity,Positive*%
%FSLAX46Y46*%
G04 Gerber Fmt 4.6, Leading zero omitted, Abs format (unit mm)*
G04 Created by KiCad (PCBNEW 8.0.5) date 2025-01-29 09:14:24*
%MOMM*%
%LPD*%
G01*
G04 APERTURE LIST*
G04 Aperture macros list*
%AMRoundRect*
0 Rectangle with rounded corners*
0 $1 Rounding radius*
0 $2 $3 $4 $5 $6 $7 $8 $9 X,Y pos of 4 corners*
0 Add a 4 corners polygon primitive as box body*
4,1,4,$2,$3,$4,$5,$6,$7,$8,$9,$2,$3,0*
0 Add four circle primitives for the rounded corners*
1,1,$1+$1,$2,$3*
1,1,$1+$1,$4,$5*
1,1,$1+$1,$6,$7*
1,1,$1+$1,$8,$9*
0 Add four rect primitives between the rounded corners*
20,1,$1+$1,$2,$3,$4,$5,0*
20,1,$1+$1,$4,$5,$6,$7,0*
20,1,$1+$1,$6,$7,$8,$9,0*
20,1,$1+$1,$8,$9,$2,$3,0*%
G04 Aperture macros list end*
%ADD10RoundRect,0.200000X-0.200000X-0.275000X0.200000X-0.275000X0.200000X0.275000X-0.200000X0.275000X0*%
%ADD11RoundRect,0.225000X0.225000X0.250000X-0.225000X0.250000X-0.225000X-0.250000X0.225000X-0.250000X0*%
%ADD12R,0.250000X0.250000*%
%ADD13R,0.440000X0.610000*%
%ADD14R,1.475000X0.300000*%
%ADD15R,0.300000X1.475000*%
%ADD16RoundRect,0.250000X0.325000X1.100000X-0.325000X1.100000X-0.325000X-1.100000X0.325000X-1.100000X0*%
%ADD17RoundRect,0.250000X-0.325000X-1.100000X0.325000X-1.100000X0.325000X1.100000X-0.325000X1.100000X0*%
%ADD18RoundRect,0.225000X-0.225000X-0.250000X0.225000X-0.250000X0.225000X0.250000X-0.225000X0.250000X0*%
%ADD19RoundRect,0.200000X0.275000X-0.200000X0.275000X0.200000X-0.275000X0.200000X-0.275000X-0.200000X0*%
G04 APERTURE END LIST*
D10*
%TO.C,R4*%
X244050000Y-151800000D03*
X245700000Y-151800000D03*
%TD*%
D11*
%TO.C,C7*%
X245775000Y-76600000D03*
X244225000Y-76600000D03*
%TD*%
D10*
%TO.C,R5*%
X244050000Y-153550000D03*
X245700000Y-153550000D03*
%TD*%
D12*
%TO.C,Q1*%
X347900000Y-79100000D03*
X348400000Y-79100000D03*
X348900000Y-79100000D03*
X348900000Y-77750000D03*
X348400000Y-77750000D03*
X347900000Y-77750000D03*
D13*
X348780000Y-78425000D03*
X348020000Y-78425000D03*
%TD*%
D14*
%TO.C,IC1*%
X292512000Y-106272000D03*
X292512000Y-106772000D03*
X292512000Y-107272000D03*
X292512000Y-107772000D03*
X292512000Y-108272000D03*
X292512000Y-108772000D03*
X292512000Y-109272000D03*
X292512000Y-109772000D03*
X292512000Y-110272000D03*
X292512000Y-110772000D03*
X292512000Y-111272000D03*
X292512000Y-111772000D03*
X292512000Y-112272000D03*
X292512000Y-112772000D03*
X292512000Y-113272000D03*
X292512000Y-113772000D03*
D15*
X294500000Y-115760000D03*
X295000000Y-115760000D03*
X295500000Y-115760000D03*
X296000000Y-115760000D03*
X296500000Y-115760000D03*
X297000000Y-115760000D03*
X297500000Y-115760000D03*
X298000000Y-115760000D03*
X298500000Y-115760000D03*
X299000000Y-115760000D03*
X299500000Y-115760000D03*
X300000000Y-115760000D03*
X300500000Y-115760000D03*
X301000000Y-115760000D03*
X301500000Y-115760000D03*
X302000000Y-115760000D03*
D14*
X303988000Y-113772000D03*
X303988000Y-113272000D03*
X303988000Y-112772000D03*
X303988000Y-112272000D03*
X303988000Y-111772000D03*
X303988000Y-111272000D03*
X303988000Y-110772000D03*
X303988000Y-110272000D03*
X303988000Y-109772000D03*
X303988000Y-109272000D03*
X303988000Y-108772000D03*
X303988000Y-108272000D03*
X303988000Y-107772000D03*
X303988000Y-107272000D03*
X303988000Y-106772000D03*
X303988000Y-106272000D03*
D15*
X302000000Y-104284000D03*
X301500000Y-104284000D03*
X301000000Y-104284000D03*
X300500000Y-104284000D03*
X300000000Y-104284000D03*
X299500000Y-104284000D03*
X299000000Y-104284000D03*
X298500000Y-104284000D03*
X298000000Y-104284000D03*
X297500000Y-104284000D03*
X297000000Y-104284000D03*
X296500000Y-104284000D03*
X296000000Y-104284000D03*
X295500000Y-104284000D03*
X295000000Y-104284000D03*
X294500000Y-104284000D03*
%TD*%
D16*
%TO.C,C8*%
X243475000Y-80000000D03*
X240525000Y-80000000D03*
%TD*%
D17*
%TO.C,C9*%
X240525000Y-84000000D03*
X243475000Y-84000000D03*
%TD*%
D18*
%TO.C,C6*%
X303655000Y-90000000D03*
X305205000Y-90000000D03*
%TD*%
D10*
%TO.C,R2*%
X244050000Y-148300000D03*
X245700000Y-148300000D03*
%TD*%
D11*
%TO.C,C1*%
X284275000Y-114500000D03*
X282725000Y-114500000D03*
%TD*%
D19*
%TO.C,R1*%
X280400000Y-158425000D03*
X280400000Y-156775000D03*
%TD*%
D10*
%TO.C,R3*%
X244050000Y-150050000D03*
X245700000Y-150050000D03*
%TD*%
M02*
