%TF.GenerationSoftware,KiCad,Pcbnew,8.0.5*%
%TF.CreationDate,2025-01-29T09:14:24-07:00*%
%TF.ProjectId,Senior_Project_Schematic_Design,53656e69-6f72-45f5-9072-6f6a6563745f,rev?*%
%TF.SameCoordinates,Original*%
%TF.FileFunction,Legend,Bot*%
%TF.FilePolarity,Positive*%
%FSLAX46Y46*%
G04 Gerber Fmt 4.6, Leading zero omitted, Abs format (unit mm)*
G04 Created by KiCad (PCBNEW 8.0.5) date 2025-01-29 09:14:24*
%MOMM*%
%LPD*%
G01*
G04 APERTURE LIST*
%ADD10C,0.150000*%
%ADD11C,0.120000*%
G04 APERTURE END LIST*
D10*
X295219580Y-112808333D02*
X295267200Y-112760714D01*
X295267200Y-112760714D02*
X295314819Y-112617857D01*
X295314819Y-112617857D02*
X295314819Y-112522619D01*
X295314819Y-112522619D02*
X295267200Y-112379762D01*
X295267200Y-112379762D02*
X295171961Y-112284524D01*
X295171961Y-112284524D02*
X295076723Y-112236905D01*
X295076723Y-112236905D02*
X294886247Y-112189286D01*
X294886247Y-112189286D02*
X294743390Y-112189286D01*
X294743390Y-112189286D02*
X294552914Y-112236905D01*
X294552914Y-112236905D02*
X294457676Y-112284524D01*
X294457676Y-112284524D02*
X294362438Y-112379762D01*
X294362438Y-112379762D02*
X294314819Y-112522619D01*
X294314819Y-112522619D02*
X294314819Y-112617857D01*
X294314819Y-112617857D02*
X294362438Y-112760714D01*
X294362438Y-112760714D02*
X294410057Y-112808333D01*
X294648152Y-113665476D02*
X295314819Y-113665476D01*
X294267200Y-113427381D02*
X294981485Y-113189286D01*
X294981485Y-113189286D02*
X294981485Y-113808333D01*
X300659580Y-112838333D02*
X300707200Y-112790714D01*
X300707200Y-112790714D02*
X300754819Y-112647857D01*
X300754819Y-112647857D02*
X300754819Y-112552619D01*
X300754819Y-112552619D02*
X300707200Y-112409762D01*
X300707200Y-112409762D02*
X300611961Y-112314524D01*
X300611961Y-112314524D02*
X300516723Y-112266905D01*
X300516723Y-112266905D02*
X300326247Y-112219286D01*
X300326247Y-112219286D02*
X300183390Y-112219286D01*
X300183390Y-112219286D02*
X299992914Y-112266905D01*
X299992914Y-112266905D02*
X299897676Y-112314524D01*
X299897676Y-112314524D02*
X299802438Y-112409762D01*
X299802438Y-112409762D02*
X299754819Y-112552619D01*
X299754819Y-112552619D02*
X299754819Y-112647857D01*
X299754819Y-112647857D02*
X299802438Y-112790714D01*
X299802438Y-112790714D02*
X299850057Y-112838333D01*
X299850057Y-113219286D02*
X299802438Y-113266905D01*
X299802438Y-113266905D02*
X299754819Y-113362143D01*
X299754819Y-113362143D02*
X299754819Y-113600238D01*
X299754819Y-113600238D02*
X299802438Y-113695476D01*
X299802438Y-113695476D02*
X299850057Y-113743095D01*
X299850057Y-113743095D02*
X299945295Y-113790714D01*
X299945295Y-113790714D02*
X300040533Y-113790714D01*
X300040533Y-113790714D02*
X300183390Y-113743095D01*
X300183390Y-113743095D02*
X300754819Y-113171667D01*
X300754819Y-113171667D02*
X300754819Y-113790714D01*
X301441666Y-114089580D02*
X301489285Y-114137200D01*
X301489285Y-114137200D02*
X301632142Y-114184819D01*
X301632142Y-114184819D02*
X301727380Y-114184819D01*
X301727380Y-114184819D02*
X301870237Y-114137200D01*
X301870237Y-114137200D02*
X301965475Y-114041961D01*
X301965475Y-114041961D02*
X302013094Y-113946723D01*
X302013094Y-113946723D02*
X302060713Y-113756247D01*
X302060713Y-113756247D02*
X302060713Y-113613390D01*
X302060713Y-113613390D02*
X302013094Y-113422914D01*
X302013094Y-113422914D02*
X301965475Y-113327676D01*
X301965475Y-113327676D02*
X301870237Y-113232438D01*
X301870237Y-113232438D02*
X301727380Y-113184819D01*
X301727380Y-113184819D02*
X301632142Y-113184819D01*
X301632142Y-113184819D02*
X301489285Y-113232438D01*
X301489285Y-113232438D02*
X301441666Y-113280057D01*
X301108332Y-113184819D02*
X300489285Y-113184819D01*
X300489285Y-113184819D02*
X300822618Y-113565771D01*
X300822618Y-113565771D02*
X300679761Y-113565771D01*
X300679761Y-113565771D02*
X300584523Y-113613390D01*
X300584523Y-113613390D02*
X300536904Y-113661009D01*
X300536904Y-113661009D02*
X300489285Y-113756247D01*
X300489285Y-113756247D02*
X300489285Y-113994342D01*
X300489285Y-113994342D02*
X300536904Y-114089580D01*
X300536904Y-114089580D02*
X300584523Y-114137200D01*
X300584523Y-114137200D02*
X300679761Y-114184819D01*
X300679761Y-114184819D02*
X300965475Y-114184819D01*
X300965475Y-114184819D02*
X301060713Y-114137200D01*
X301060713Y-114137200D02*
X301108332Y-114089580D01*
X293416666Y-114109580D02*
X293464285Y-114157200D01*
X293464285Y-114157200D02*
X293607142Y-114204819D01*
X293607142Y-114204819D02*
X293702380Y-114204819D01*
X293702380Y-114204819D02*
X293845237Y-114157200D01*
X293845237Y-114157200D02*
X293940475Y-114061961D01*
X293940475Y-114061961D02*
X293988094Y-113966723D01*
X293988094Y-113966723D02*
X294035713Y-113776247D01*
X294035713Y-113776247D02*
X294035713Y-113633390D01*
X294035713Y-113633390D02*
X293988094Y-113442914D01*
X293988094Y-113442914D02*
X293940475Y-113347676D01*
X293940475Y-113347676D02*
X293845237Y-113252438D01*
X293845237Y-113252438D02*
X293702380Y-113204819D01*
X293702380Y-113204819D02*
X293607142Y-113204819D01*
X293607142Y-113204819D02*
X293464285Y-113252438D01*
X293464285Y-113252438D02*
X293416666Y-113300057D01*
X292511904Y-113204819D02*
X292988094Y-113204819D01*
X292988094Y-113204819D02*
X293035713Y-113681009D01*
X293035713Y-113681009D02*
X292988094Y-113633390D01*
X292988094Y-113633390D02*
X292892856Y-113585771D01*
X292892856Y-113585771D02*
X292654761Y-113585771D01*
X292654761Y-113585771D02*
X292559523Y-113633390D01*
X292559523Y-113633390D02*
X292511904Y-113681009D01*
X292511904Y-113681009D02*
X292464285Y-113776247D01*
X292464285Y-113776247D02*
X292464285Y-114014342D01*
X292464285Y-114014342D02*
X292511904Y-114109580D01*
X292511904Y-114109580D02*
X292559523Y-114157200D01*
X292559523Y-114157200D02*
X292654761Y-114204819D01*
X292654761Y-114204819D02*
X292892856Y-114204819D01*
X292892856Y-114204819D02*
X292988094Y-114157200D01*
X292988094Y-114157200D02*
X293035713Y-114109580D01*
D11*
%TO.C,C4*%
X294390000Y-110640580D02*
X294390000Y-110359420D01*
X295410000Y-110640580D02*
X295410000Y-110359420D01*
%TO.C,C2*%
X299790000Y-110640580D02*
X299790000Y-110359420D01*
X300810000Y-110640580D02*
X300810000Y-110359420D01*
%TO.C,C3*%
X298940580Y-113190000D02*
X298659420Y-113190000D01*
X298940580Y-114210000D02*
X298659420Y-114210000D01*
%TO.C,C5*%
X295584420Y-113190000D02*
X295865580Y-113190000D01*
X295584420Y-114210000D02*
X295865580Y-114210000D01*
%TD*%
M02*
