%TF.GenerationSoftware,KiCad,Pcbnew,8.0.5*%
%TF.CreationDate,2025-01-29T09:14:24-07:00*%
%TF.ProjectId,Senior_Project_Schematic_Design,53656e69-6f72-45f5-9072-6f6a6563745f,rev?*%
%TF.SameCoordinates,Original*%
%TF.FileFunction,Soldermask,Bot*%
%TF.FilePolarity,Negative*%
%FSLAX46Y46*%
G04 Gerber Fmt 4.6, Leading zero omitted, Abs format (unit mm)*
G04 Created by KiCad (PCBNEW 8.0.5) date 2025-01-29 09:14:24*
%MOMM*%
%LPD*%
G01*
G04 APERTURE LIST*
G04 Aperture macros list*
%AMRoundRect*
0 Rectangle with rounded corners*
0 $1 Rounding radius*
0 $2 $3 $4 $5 $6 $7 $8 $9 X,Y pos of 4 corners*
0 Add a 4 corners polygon primitive as box body*
4,1,4,$2,$3,$4,$5,$6,$7,$8,$9,$2,$3,0*
0 Add four circle primitives for the rounded corners*
1,1,$1+$1,$2,$3*
1,1,$1+$1,$4,$5*
1,1,$1+$1,$6,$7*
1,1,$1+$1,$8,$9*
0 Add four rect primitives between the rounded corners*
20,1,$1+$1,$2,$3,$4,$5,0*
20,1,$1+$1,$4,$5,$6,$7,0*
20,1,$1+$1,$6,$7,$8,$9,0*
20,1,$1+$1,$8,$9,$2,$3,0*%
G04 Aperture macros list end*
%ADD10C,3.600000*%
%ADD11R,1.665000X1.665000*%
%ADD12C,1.665000*%
%ADD13R,1.710000X1.710000*%
%ADD14C,1.710000*%
%ADD15R,1.950000X1.950000*%
%ADD16C,1.950000*%
%ADD17C,1.879600*%
%ADD18R,1.800000X1.800000*%
%ADD19C,1.800000*%
%ADD20C,3.810000*%
%ADD21R,1.700000X1.700000*%
%ADD22O,1.700000X1.700000*%
%ADD23C,1.752600*%
%ADD24R,1.600000X1.600000*%
%ADD25O,1.600000X1.600000*%
%ADD26RoundRect,0.225000X-0.250000X0.225000X-0.250000X-0.225000X0.250000X-0.225000X0.250000X0.225000X0*%
%ADD27RoundRect,0.225000X-0.225000X-0.250000X0.225000X-0.250000X0.225000X0.250000X-0.225000X0.250000X0*%
%ADD28RoundRect,0.225000X0.225000X0.250000X-0.225000X0.250000X-0.225000X-0.250000X0.225000X-0.250000X0*%
G04 APERTURE END LIST*
D10*
%TO.C,Radar*%
X263800000Y-43610000D03*
X263800000Y-70010000D03*
X328200000Y-43610000D03*
X328200000Y-70010000D03*
D11*
X265000000Y-54270000D03*
D12*
X265000000Y-56810000D03*
X265000000Y-59350000D03*
X327000000Y-47920000D03*
X327000000Y-50460000D03*
X327000000Y-53000000D03*
X327000000Y-55540000D03*
X327000000Y-58080000D03*
X327000000Y-60620000D03*
X327000000Y-63160000D03*
X327000000Y-65700000D03*
%TD*%
D13*
%TO.C,PS1*%
X246000000Y-70000000D03*
D14*
X243460000Y-70000000D03*
X240920000Y-70000000D03*
%TD*%
D15*
%TO.C,Light 2*%
X360000000Y-55000000D03*
D16*
X360000000Y-49920000D03*
%TD*%
D17*
%TO.C,U1*%
X291762000Y-162319000D03*
X294302000Y-162319000D03*
X296842000Y-162319000D03*
X299382000Y-162319000D03*
X301922000Y-162319000D03*
X304462000Y-162319000D03*
X294302000Y-149619000D03*
X296842000Y-149619000D03*
X299382000Y-149619000D03*
X301922000Y-149619000D03*
%TD*%
D18*
%TO.C,D2*%
X250460000Y-144000000D03*
D19*
X253000000Y-144000000D03*
%TD*%
D18*
%TO.C,D4*%
X265460000Y-144000000D03*
D19*
X268000000Y-144000000D03*
%TD*%
D20*
%TO.C,REF\u002A\u002A*%
X241000000Y-42000000D03*
%TD*%
%TO.C,REF\u002A\u002A*%
X361000000Y-42000000D03*
%TD*%
%TO.C,*%
X361000000Y-162000000D03*
%TD*%
D15*
%TO.C,Light 1*%
X345000000Y-44000000D03*
D16*
X339920000Y-44000000D03*
%TD*%
D21*
%TO.C,J6*%
X266460000Y-135000000D03*
D22*
X269000000Y-135000000D03*
X266460000Y-132460000D03*
X269000000Y-132460000D03*
X266460000Y-129920000D03*
X269000000Y-129920000D03*
X266460000Y-127380000D03*
X269000000Y-127380000D03*
X266460000Y-124840000D03*
X269000000Y-124840000D03*
X266460000Y-122300000D03*
X269000000Y-122300000D03*
X266460000Y-119760000D03*
X269000000Y-119760000D03*
X266460000Y-117220000D03*
X269000000Y-117220000D03*
X266460000Y-114680000D03*
X269000000Y-114680000D03*
X266460000Y-112140000D03*
X269000000Y-112140000D03*
X266460000Y-109600000D03*
X269000000Y-109600000D03*
X266460000Y-107060000D03*
X269000000Y-107060000D03*
X266460000Y-104520000D03*
X269000000Y-104520000D03*
X266460000Y-101980000D03*
X269000000Y-101980000D03*
X266460000Y-99440000D03*
X269000000Y-99440000D03*
X266460000Y-96900000D03*
X269000000Y-96900000D03*
X266460000Y-94360000D03*
X269000000Y-94360000D03*
X266460000Y-91820000D03*
X269000000Y-91820000D03*
%TD*%
D20*
%TO.C,REF\u002A\u002A*%
X241000000Y-162000000D03*
%TD*%
D15*
%TO.C,Load Voltage*%
X255185000Y-43000000D03*
D16*
X250105000Y-43000000D03*
%TD*%
D23*
%TO.C,U3*%
X354960000Y-163970000D03*
X354960000Y-161430000D03*
X354960000Y-158890000D03*
X354960000Y-156350000D03*
X354960000Y-153810000D03*
X354960000Y-151270000D03*
X354960000Y-148730000D03*
X354960000Y-146190000D03*
X354960000Y-143650000D03*
X354960000Y-141110000D03*
X354960000Y-138570000D03*
X354960000Y-136030000D03*
X337180000Y-163970000D03*
X337180000Y-161430000D03*
X337180000Y-158890000D03*
X337180000Y-156350000D03*
X337180000Y-153810000D03*
X337180000Y-151270000D03*
X337180000Y-148730000D03*
X337180000Y-146190000D03*
X337180000Y-143650000D03*
X337180000Y-141110000D03*
X337180000Y-138570000D03*
X337180000Y-136030000D03*
X338529000Y-121615000D03*
X335989000Y-121615000D03*
%TD*%
D18*
%TO.C,D1*%
X242960000Y-144000000D03*
D19*
X245500000Y-144000000D03*
%TD*%
D21*
%TO.C,J5*%
X327460000Y-133160000D03*
D22*
X330000000Y-133160000D03*
X327460000Y-130620000D03*
X330000000Y-130620000D03*
X327460000Y-128080000D03*
X330000000Y-128080000D03*
X327460000Y-125540000D03*
X330000000Y-125540000D03*
X327460000Y-123000000D03*
X330000000Y-123000000D03*
X327460000Y-120460000D03*
X330000000Y-120460000D03*
X327460000Y-117920000D03*
X330000000Y-117920000D03*
X327460000Y-115380000D03*
X330000000Y-115380000D03*
X327460000Y-112840000D03*
X330000000Y-112840000D03*
X327460000Y-110300000D03*
X330000000Y-110300000D03*
X327460000Y-107760000D03*
X330000000Y-107760000D03*
X327460000Y-105220000D03*
X330000000Y-105220000D03*
X327460000Y-102680000D03*
X330000000Y-102680000D03*
X327460000Y-100140000D03*
X330000000Y-100140000D03*
X327460000Y-97600000D03*
X330000000Y-97600000D03*
X327460000Y-95060000D03*
X330000000Y-95060000D03*
X327460000Y-92520000D03*
X330000000Y-92520000D03*
X327460000Y-89980000D03*
X330000000Y-89980000D03*
%TD*%
D21*
%TO.C,J1*%
X286080000Y-162900000D03*
D22*
X283540000Y-162900000D03*
X281000000Y-162900000D03*
X278460000Y-162900000D03*
X275920000Y-162900000D03*
X273380000Y-162900000D03*
X270840000Y-162900000D03*
X268300000Y-162900000D03*
%TD*%
D24*
%TO.C,SW1*%
X251380000Y-158000000D03*
D25*
X253920000Y-158000000D03*
X256460000Y-158000000D03*
X259000000Y-158000000D03*
X259000000Y-150380000D03*
X256460000Y-150380000D03*
X253920000Y-150380000D03*
X251380000Y-150380000D03*
%TD*%
D18*
%TO.C,D3*%
X257960000Y-144000000D03*
D19*
X260500000Y-144000000D03*
%TD*%
D26*
%TO.C,C4*%
X294900000Y-109725000D03*
X294900000Y-111275000D03*
%TD*%
%TO.C,C2*%
X300300000Y-109725000D03*
X300300000Y-111275000D03*
%TD*%
D27*
%TO.C,C3*%
X298025000Y-113700000D03*
X299575000Y-113700000D03*
%TD*%
D28*
%TO.C,C5*%
X296500000Y-113700000D03*
X294950000Y-113700000D03*
%TD*%
M02*
